<svg xmlns="http://www.w3.org/2000/svg" aria-hidden="true" style="position:absolute;width:0;height:0;overflow:hidden">
  <defs>
    <symbol id="icon-upload-cloud" viewBox="0 0 32 32">
      <path stroke-linecap="round" stroke-linejoin="round" stroke-width="2.311" d="M16 16v12M27.187 24.52a6.671 6.671 0 0 0 3.27-7.497A6.669 6.669 0 0 0 24.001 12h-1.68a10.659 10.659 0 0 0-10.72-7.99 10.66 10.66 0 0 0-10.103 8.757 10.669 10.669 0 0 0 2.503 8.967"/>
      <path stroke-linecap="round" stroke-linejoin="round" stroke-width="2.311" d="M21.333 21.333 16 16l-5.333 5.333"/>
    </symbol>
    <symbol id="icon-paw" viewBox="0 0 32 32">
      <path d="M11.471 1.765c-1.385 0-2.591.787-3.357 1.861S6.942 6.087 6.942 7.589c0 1.501.406 2.89 1.172 3.964s1.972 1.86 3.357 1.86 2.591-.787 3.357-1.861c.766-1.074 1.173-2.461 1.173-3.963s-.406-2.89-1.173-3.964c-.766-1.074-1.972-1.86-3.357-1.86zM16 7.588c0 1.501.406 2.89 1.173 3.964s1.973 1.86 3.357 1.86c1.385 0 2.591-.787 3.357-1.861S25.06 9.09 25.06 7.588s-.406-2.89-1.173-3.964c-.766-1.074-1.972-1.86-3.357-1.86s-2.591.787-3.357 1.861C16.407 4.699 16 6.086 16 7.588zm-4.529-3.235c.404 0 .849.202 1.255.769.401.566.686 1.466.686 2.467s-.285 1.902-.686 2.467c-.406.567-.852.769-1.255.769s-.849-.202-1.255-.769C9.815 9.49 9.53 8.59 9.53 7.589s.285-1.902.686-2.467c.406-.567.852-.769 1.255-.769zm9.058 0c.404 0 .849.202 1.255.769.401.566.686 1.466.686 2.467s-.285 1.902-.686 2.467c-.406.567-.851.769-1.255.769s-.849-.202-1.255-.769c-.401-.566-.686-1.466-.686-2.467s.285-1.902.686-2.467c.406-.567.851-.769 1.255-.769zM5 10.824c-1.385 0-2.591.787-3.357 1.861S.471 15.146.471 16.648s.406 2.89 1.172 3.964c.766 1.074 1.972 1.86 3.357 1.86s2.591-.787 3.357-1.861c.766-1.074 1.172-2.461 1.172-3.963s-.406-2.89-1.172-3.964c-.766-1.074-1.972-1.86-3.357-1.86zm22 0c-1.385 0-2.591.787-3.357 1.861s-1.173 2.461-1.173 3.963.406 2.89 1.173 3.964c.766 1.074 1.972 1.86 3.357 1.86s2.591-.787 3.357-1.861c.766-1.074 1.173-2.461 1.173-3.963s-.406-2.89-1.173-3.964c-.766-1.074-1.972-1.86-3.357-1.86zM5 13.412c.404 0 .849.202 1.255.769.401.565.686 1.466.686 2.467s-.285 1.902-.686 2.467c-.406.567-.852.769-1.255.769s-.849-.202-1.255-.769c-.401-.564-.686-1.466-.686-2.467s.285-1.902.686-2.467c.406-.567.852-.769 1.255-.769zm22 0c.404 0 .849.202 1.255.769.401.565.686 1.466.686 2.467s-.285 1.902-.686 2.467c-.406.567-.851.769-1.255.769s-.849-.202-1.255-.769c-.401-.566-.686-1.466-.686-2.467s.285-1.902.686-2.467c.406-.567.851-.769 1.255-.769zM16 16c-1.725 0-2.929 1.119-3.52 2.103-.588.984-.95 1.801-1.294 2.143-.198.203-1.447.673-2.749 1.337-.651.333-1.307.776-1.86 1.456a4.228 4.228 0 0 0-.932 2.67c0 2.485 2.045 4.529 4.529 4.529 1.121 0 2.291-.362 3.436-.686 1.15-.331 2.389-.611 2.389-.611s1.238.28 2.386.608c1.147.323 2.316.686 3.437.686 2.485 0 4.529-2.045 4.529-4.529a4.136 4.136 0 0 0-.932-2.627c-.55-.664-1.213-1.074-1.858-1.417-1.294-.686-2.566-1.229-2.75-1.416-.311-.307-.66-1.152-1.255-2.141-.594-.993-1.823-2.105-3.558-2.105zm0 2.588c.854 0 .949.207 1.333.849.388.641.678 1.729 1.618 2.67 1.068 1.061 2.416 1.294 3.398 1.817.492.261.867.54 1.092.809.224.268.324.512.324.971a1.922 1.922 0 0 1-1.941 1.941c-.375 0-1.584-.285-2.71-.608-1.126-.32-2.058-.686-3.114-.686s-1.988.366-3.114.686c-1.126.324-2.335.608-2.71.608a1.922 1.922 0 0 1-1.941-1.941c0-.522.109-.789.324-1.053.215-.263.611-.523 1.092-.767.963-.492 2.304-.686 3.397-1.779.949-.954 1.233-2.077 1.618-2.711.378-.634.468-.809 1.333-.809l.001.005z"/>
    </symbol>
    <symbol id="icon-left" viewBox="0 0 32 32">
      <path d="M12.8 17.623A2.279 2.279 0 0 1 12.124 16a2.284 2.284 0 0 1 .676-1.623L23.291 3.908a2.279 2.279 0 0 0 .676-1.623 2.284 2.284 0 0 0-.676-1.623 2.285 2.285 0 0 0-3.222 0L9.578 11.153a6.859 6.859 0 0 0 0 9.692l10.491 10.492a2.289 2.289 0 0 0 3.723-2.502 2.3 2.3 0 0 0-.5-.744L12.801 17.622z"/>
    </symbol>
    <symbol id="icon-right" viewBox="0 0 32 32">
      <path d="M19.2 17.623A2.279 2.279 0 0 0 19.876 16a2.284 2.284 0 0 0-.676-1.623L8.709 3.908a2.279 2.279 0 0 1-.676-1.623A2.284 2.284 0 0 1 8.709.662a2.285 2.285 0 0 1 3.222 0l10.491 10.491a6.859 6.859 0 0 1 0 9.692L11.931 31.336a2.289 2.289 0 0 1-3.898-1.623 2.287 2.287 0 0 1 .676-1.623L19.2 17.621z"/>
    </symbol>
    <symbol id="icon-pencil" viewBox="0 0 32 32">
      <path stroke-linecap="round" stroke-linejoin="round" stroke-width="2.667" d="M22.667 4a3.766 3.766 0 0 1 4.109-.817 3.766 3.766 0 0 1 2.327 3.484 3.779 3.779 0 0 1-1.104 2.666l-18 18-7.333 2 2-7.333 18-18z"/>
    </symbol>
    <symbol id="icon-trash" viewBox="0 0 32 32">
      <path stroke-linecap="round" stroke-linejoin="round" stroke-width="2.667" d="M4 8h24M25.333 8v18.667a2.668 2.668 0 0 1-2.667 2.667H9.333a2.668 2.668 0 0 1-2.667-2.667V8m4.001 0V5.333a2.668 2.668 0 0 1 2.667-2.667h5.333a2.668 2.668 0 0 1 2.667 2.667V8M13.333 14.667v8M18.667 14.667v8"/>
    </symbol>
    <symbol id="icon-man" viewBox="0 0 32 32">
      <path stroke-linecap="round" stroke-linejoin="round" stroke-width="2.4" d="M16 14.4a8 8 0 1 0 0 16 8 8 0 0 0 0-16zm0 0V1.6m0 0L22.4 8M16 1.6 9.6 8"/>
    </symbol>
    <symbol id="icon-woman" viewBox="0 0 32 32">
      <path stroke-linecap="round" stroke-linejoin="round" stroke-width="2.4" d="M16 17.6a8 8 0 1 0 0-16 8 8 0 0 0 0 16zm0 0v12.8m-4.8-4.8h9.6"/>
    </symbol>
    <symbol id="icon-calendar" viewBox="0 0 32 32">
      <path stroke-linecap="round" stroke-linejoin="round" stroke-width="2.88" d="M25.333 5.333H6.666A2.667 2.667 0 0 0 3.999 8v18.667a2.667 2.667 0 0 0 2.667 2.667h18.667A2.667 2.667 0 0 0 28 26.667V8a2.667 2.667 0 0 0-2.667-2.667zM21.333 2.667V8M10.667 2.667V8M4 13.333h24"/>
    </symbol>
    <symbol id="icon-Star" viewBox="0 0 32 32">
      <path stroke-width="2.4" d="M19.6 10.395a2.201 2.201 0 0 0 1.57 1.141l7.6 1.313-5.375 5.535a2.2 2.2 0 0 0-.6 1.846l1.098 7.635-6.922-3.402-.234-.1a2.203 2.203 0 0 0-1.473 0l-.234.1-6.924 3.402 1.1-7.635a2.2 2.2 0 0 0-.6-1.846l-5.377-5.535 7.602-1.313a2.198 2.198 0 0 0 1.57-1.141l3.6-6.822 3.6 6.822z"/>
    </symbol>
    <symbol id="icon-user" viewBox="0 0 32 32">
      <path stroke-linecap="round" stroke-linejoin="round" stroke-width="2.667" d="M16 20c-4.227 0-7.986 2.041-10.379 5.208-.515.682-.773 1.022-.764 1.483.006.356.23.805.51 1.025.362.284.865.284 1.869.284h17.527c1.005 0 1.507 0 1.869-.284.28-.22.503-.669.51-1.025.008-.461-.249-.801-.764-1.483C23.985 22.041 20.226 20 15.999 20zM16 16a6 6 0 1 0 0-12 6 6 0 0 0 0 12z"/>
    </symbol>
    <symbol id="icon-vector" viewBox="0 0 32 32">
      <path stroke-linecap="round" stroke-linejoin="round" stroke-width="5.333" d="m4 10 12 12 12-12"/>
    </symbol>
    <symbol id="icon-greenarrow" viewBox="0 0 32 32">
      <path stroke-linecap="round" stroke-linejoin="round" stroke-width="2.667" d="M29.038 6.963 11.112 24.889l-8.148-8.148"/>
    </symbol>
    <symbol id="icon-eye-open" viewBox="0 0 32 32">
      <path stroke-linecap="round" stroke-linejoin="round" stroke-width="2.909" d="M1.332 16S6.665 5.333 15.999 5.333 30.666 16 30.666 16s-5.333 10.667-14.667 10.667C6.666 26.667 1.332 16 1.332 16z"/>
      <path stroke-linecap="round" stroke-linejoin="round" stroke-width="2.909" d="M16 20a4 4 0 1 0 0-8 4 4 0 0 0 0 8z"/>
    </symbol>
    <symbol id="icon-eye-off" viewBox="0 0 32 32">
      <path stroke-linecap="round" stroke-linejoin="round" stroke-width="2.909" d="M23.922 23.92a13.43 13.43 0 0 1-7.92 2.747C6.669 26.667 1.335 16 1.335 16a24.605 24.605 0 0 1 6.747-7.92m5.12-2.427a12.161 12.161 0 0 1 2.8-.32C25.335 5.333 30.669 16 30.669 16a24.646 24.646 0 0 1-2.88 4.253m-8.961-1.426a4.01 4.01 0 0 1-2.855 1.273 3.996 3.996 0 0 1-3.779-2.501 3.995 3.995 0 0 1 .983-4.424M1.335 1.333l29.333 29.333"/>
    </symbol>
    <symbol id="icon-crossred" viewBox="0 0 32 32">
      <path stroke-linecap="round" stroke-linejoin="round" stroke-width="4" d="M28.833 3.167 3.166 28.834m0-25.667 25.666 25.667"/>
    </symbol>
    <symbol id="icon-search" viewBox="0 0 32 32">
      <path stroke-linecap="round" stroke-linejoin="round" stroke-width="3.556" d="M14.667 25.333c5.891 0 10.667-4.776 10.667-10.667S20.558 3.999 14.667 3.999 4 8.775 4 14.666s4.776 10.667 10.667 10.667zM28.001 28l-5.8-5.8"/>
    </symbol>
    <symbol id="icon-heart" viewBox="0 0 32 32">
      <path d="M15.989 5.784C12.891 2.126 7.725 1.142 3.844 4.492s-4.428 8.949-1.38 12.911C4.416 19.94 9.416 24.645 12.759 27.7c1.111 1.015 1.666 1.523 2.332 1.726a3.141 3.141 0 0 0 1.797 0c.665-.204 1.221-.711 2.331-1.726 3.343-3.055 8.343-7.76 10.295-10.297 3.048-3.961 2.568-9.597-1.38-12.911s-9.048-2.365-12.146 1.292z"/>
    </symbol>
    <symbol id="icon-group" viewBox="0 0 36 32">
      <path d="M11.541 7.49A6.996 6.996 0 0 0 2 14.155a6.992 6.992 0 0 0 5.33 6.649 6.999 6.999 0 0 0 8.582-7.862 1.005 1.005 0 0 1 .47-1.007.99.99 0 0 1 .757-.116.99.99 0 0 1 .617.453c.068.113.113.237.133.367A8.998 8.998 0 0 1 6.855 22.746 8.995 8.995 0 0 1 6.49 5.368a8.993 8.993 0 0 1 5.779.26.993.993 0 0 1 .562.529c.054.121.083.251.087.384s-.02.264-.068.387a.997.997 0 0 1-.921.636.995.995 0 0 1-.386-.072z"/>
      <path d="M7.996 31v-7.997a1 1 0 1 1 2 0V31a1 1 0 1 1-2 0z"/>
      <path d="M4.998 26.002a1 1 0 0 1 1-1h5.998a1 1 0 1 1 0 2H5.998a1 1 0 0 1-1-1zM22.893 7.273a7.001 7.001 0 0 0-6.446 1.413 7.001 7.001 0 0 0-2.404 6.146 1.006 1.006 0 0 1-.502.994.988.988 0 0 1-1.11-.088 1.007 1.007 0 0 1-.372-.671 8.997 8.997 0 0 1 11.377-9.718 8.998 8.998 0 0 1 4.617 14.233 8.997 8.997 0 0 1-10.622 2.687.99.99 0 0 1-.533-.548 1 1 0 0 1 1.324-1.287 6.997 6.997 0 1 0 4.67-13.16z"/>
      <path d="M26.783 9.216a1.002 1.002 0 0 1 0-1.414L34.28.305a1 1 0 0 1 1.637 1.088.981.981 0 0 1-.224.324l-7.497 7.497a1.003 1.003 0 0 1-1.414 0z"/>
      <path d="M34.91 7.01a1.006 1.006 0 0 1-.703-.302.999.999 0 0 1-.284-.711l.05-3.972-3.972.05a1.003 1.003 0 0 1-1.013-.987 1.003 1.003 0 0 1 .987-1.013l6.024-.076-.076 6.024a1.006 1.006 0 0 1-.302.704 1.005 1.005 0 0 1-.71.283z"/>
    </symbol>
  </defs>
</svg>
